PathFileType	4	(X/Y/Z)	/Users/visionmauri/4_2_1_f_1_Sports2D/4_2_1_f_1_Sports2D_px_person00.trc
DataRate	CameraRate	NumFrames	NumMarkers	Units	OrigDataRate	OrigDataStartFrame	OrigNumFrames
30.0	30.0	6	22	m	30.0	238	382
Frame#	Time	Hip			RHip			RKnee			RAnkle			RBigToe			RSmallToe			RHeel			LHip			LKnee			LAnkle			LBigToe			LSmallToe			LHeel			Neck			Head			Nose			RShoulder			RElbow			RWrist			LShoulder			LElbow			LWrist			
		X1	Y1	Z1	X2	Y2	Z2	X3	Y3	Z3	X4	Y4	Z4	X5	Y5	Z5	X6	Y6	Z6	X7	Y7	Z7	X8	Y8	Z8	X9	Y9	Z9	X10	Y10	Z10	X11	Y11	Z11	X12	Y12	Z12	X13	Y13	Z13	X14	Y14	Z14	X15	Y15	Z15	X16	Y16	Z16	X17	Y17	Z17	X18	Y18	Z18	X19	Y19	Z19	X20	Y20	Z20	X21	Y21	Z21	X22	Y22	Z22
238	7.954155730533682	592.9618555078599	852.6845439715329	0.0	536.840493107381	865.1480713460579	0.0	530.7552436819557	1041.201631707575	0.0	517.2718968582343	1245.2935126161024	0.0	528.0763342964494	1318.7217416711853	0.0	504.6000788974822	1305.402933040631	0.0	523.1801713466327	1276.2189945013317	0.0	654.4723140139934	855.696301132041	0.0	685.9821968406906	1046.7667016479672	0.0	664.6046331101024	1263.9070765973872	0.0	719.3664608244351	1333.687090323921	0.0	734.3385203352725	1321.5544722775116	0.0	644.7808844569198	1293.2036117132616	0.0	569.2804229205988	569.9156700734977	0.0	549.4308221451316	435.5439665353046	0.0	543.3253298489242	529.9576654644345	0.0	475.75469729421377	607.5962144284446	0.0	415.41273667553605	738.5580710983628	0.0	368.6160744148799	848.653167704457	0.0	671.89993554497	593.2297619770173	0.0	719.585982932132	726.035486479515	0.0	750.2705569179698	833.6845100696371	0.0
239	7.987576552930882	594.2028046534319	855.7923686978711	0.0	538.2847977292236	866.0036154680392	0.0	531.3956493889287	1044.6145722471542	0.0	515.9643800764206	1249.1951782144727	0.0	526.9225280997678	1321.7582291969456	0.0	500.48586093992975	1312.3665651291517	0.0	521.6935386114124	1279.7617681249553	0.0	655.3226101498499	857.9634984785871	0.0	679.484236267284	1052.6087340571692	0.0	673.254385267231	1275.4545212834144	0.0	727.847239375422	1340.658077213955	0.0	742.0204053509153	1331.0111425931184	0.0	654.4617386299374	1307.263956146122	0.0	572.0934144448311	571.2838930504151	0.0	552.4174652302028	435.78847583471855	0.0	546.3732615842812	530.3081396197317	0.0	477.99445512940514	607.8004798808579	0.0	417.61418698751663	737.0234368506326	0.0	368.9478152223212	847.5990664651781	0.0	675.3412808621254	593.4090383809752	0.0	722.7416340028967	726.2631005002974	0.0	750.8178718156538	832.9467368534813	0.0
240	8.020997375328083	595.8538647117105	858.8782884223527	0.0	539.8367952237737	867.4015449656775	0.0	532.6142529135838	1047.4484847033941	0.0	515.0658067707351	1252.1371171965436	0.0	525.7231632143224	1324.6288793240935	0.0	497.7538896454039	1317.3496996738816	0.0	521.221466855267	1282.0822189138698	0.0	655.5720831676786	860.401511349019	0.0	673.9965718507098	1056.5431451261613	0.0	679.9298072948443	1283.0328920052657	0.0	732.6517587558276	1343.913114268799	0.0	746.2827388566496	1335.9306492679884	0.0	662.8820988571927	1317.5122688661752	0.0	575.5743727595885	572.8607778724069	0.0	555.6950959542534	435.46905682496396	0.0	550.5316215515572	531.8814787344622	0.0	479.1915170189625	608.2570617083367	0.0	419.5549481809537	736.5530293063673	0.0	369.27172267395576	846.8749754569823	0.0	678.884873406632	593.0198782695993	0.0	725.7365309305019	726.4712139947891	0.0	751.2801367641816	831.0867976000344	0.0
241	8.054418197725283	598.3877068248719	861.4831645860348	0.0	541.4978500804472	870.076710853775	0.0	533.9273266727957	1047.124024486381	0.0	515.5629462718515	1252.0921912589363	0.0	525.3588595727729	1324.9362251159291	0.0	497.38050193251013	1317.5704415959158	0.0	521.4630794235692	1282.7801825938714	0.0	656.2503988994757	863.7765989082834	0.0	670.4383268040593	1059.2152810526825	0.0	682.9457963457204	1287.4534207120626	0.0	732.1461387273553	1345.8047460689702	0.0	747.4774690998643	1338.193593852468	0.0	667.8599644199722	1323.609834677944	0.0	579.4992927027928	573.3762724115894	0.0	559.4950594529979	434.5735111795378	0.0	555.6452936114576	533.3905680115795	0.0	480.7702842875416	608.3349809341877	0.0	421.29386280929543	736.2832724155815	0.0	369.9067291799832	846.6998917135351	0.0	683.0303837716057	592.7522610311304	0.0	728.6236819755238	726.469218073891	0.0	752.4002353095591	829.3133600939638	0.0
242	8.087839020122484	601.8544740694723	863.8882674626519	0.0	543.4253099966922	872.784974795248	0.0	534.9160081481414	1045.000222449713	0.0	516.5360859368005	1250.7956543548255	0.0	525.6509131762143	1324.1514621753718	0.0	497.7810771008857	1316.2640650721144	0.0	521.568690794452	1282.7619896351537	0.0	658.3345646916329	866.8799405764834	0.0	668.9619495928459	1061.786922514559	0.0	682.3996247050923	1291.9785338587537	0.0	726.8105697694615	1350.6930501252582	0.0	745.7382394124706	1342.9049627636682	0.0	668.4512020925549	1328.5187251616967	0.0	583.9533495883775	573.0298296232011	0.0	563.9448357455047	433.82603938796626	0.0	561.2559970313822	533.9790760728621	0.0	484.4497739734621	608.1102258561262	0.0	423.12819958639477	735.7629437504936	0.0	370.91266032677504	846.8557358512264	0.0	687.7079819553045	592.5144183860156	0.0	731.3984571615954	726.2873577679565	0.0	753.556318204826	828.7101746007856	0.0
243	8.121259842519684	605.4616812704212	865.9501719528596	0.0	545.8403218134854	873.5230935181391	0.0	535.6356416910522	1043.1145748935114	0.0	516.6591604102746	1250.4118372561145	0.0	526.0081747884442	1324.5596715232489	0.0	497.7506124270416	1316.9046759410935	0.0	521.4867033452026	1283.402963974366	0.0	661.8064935975339	867.8579201225339	0.0	668.691379377676	1064.7351206513786	0.0	679.8731835589928	1298.8761352050376	0.0	718.0105838528101	1360.7061359033755	0.0	740.8091679749753	1352.817368184192	0.0	666.0134078081588	1335.0125317520274	0.0	589.2206979473567	572.395633263631	0.0	569.7500420531566	433.62805357697175	0.0	567.4613153485187	533.7544019954279	0.0	490.27248217187974	608.0116439172197	0.0	425.4594901923388	735.2066379088537	0.0	372.359212482371	846.3575947958066	0.0	692.7628011178211	592.2118600474543	0.0	734.191624823149	726.4504989449545	0.0	754.35531485353	829.6035110357717	0.0
